<svg width="380" height="470" viewBox="0 0 380 470" fill="none" xmlns="http://www.w3.org/2000/svg">
<rect width="380" height="470" fill="url(#paint0_linear_14_0)" fill-opacity="0.8"/>
<rect x="78" y="206" width="57" height="57" fill="#95E1D3"/>
<rect x="136" y="206" width="57" height="57" fill="#FCE38A"/>
<rect x="194" y="206" width="57" height="57" fill="#FCE38A"/>
<rect x="252" y="206" width="57" height="57" fill="#FCE38A"/>
<g clip-path="url(#clip0_14_0)">
<path d="M178 226.938C177.033 227.362 176.003 227.644 174.929 227.78C176.034 227.12 176.877 226.084 177.274 224.834C176.243 225.448 175.106 225.882 173.894 226.124C172.915 225.083 171.521 224.438 170 224.438C167.049 224.438 164.673 226.833 164.673 229.769C164.673 230.192 164.709 230.598 164.797 230.985C160.366 230.768 156.444 228.645 153.81 225.409C153.35 226.207 153.081 227.12 153.081 228.104C153.081 229.95 154.031 231.586 155.448 232.533C154.592 232.517 153.752 232.268 153.04 231.877C153.04 231.893 153.04 231.914 153.04 231.935C153.04 234.525 154.888 236.677 157.31 237.173C156.877 237.291 156.404 237.348 155.913 237.348C155.572 237.348 155.227 237.329 154.904 237.257C155.594 239.368 157.554 240.92 159.885 240.97C158.071 242.389 155.768 243.244 153.276 243.244C152.839 243.244 152.419 243.224 152 243.17C154.361 244.693 157.159 245.562 160.177 245.562C169.986 245.562 175.348 237.438 175.348 230.395C175.348 230.159 175.34 229.932 175.329 229.706C176.386 228.955 177.275 228.017 178 226.938Z" fill="#F38181"/>
</g>
<path d="M109.014 248V236.141H112.992L113.589 231.518H109.014V228.567C109.014 227.229 109.384 226.317 111.305 226.317L113.751 226.316V222.181C113.328 222.126 111.875 222 110.185 222C106.657 222 104.241 224.154 104.241 228.109V231.518H100.249V236.141H104.241V248H109.014Z" fill="#F38181"/>
<path d="M223.353 222C216.228 222 212.438 226.566 212.438 231.546C212.438 233.855 213.728 236.735 215.794 237.648C216.107 237.789 216.278 237.729 216.348 237.438C216.41 237.217 216.681 236.153 216.813 235.651C216.853 235.49 216.832 235.35 216.702 235.199C216.016 234.406 215.472 232.961 215.472 231.606C215.472 228.133 218.233 224.761 222.931 224.761C226.994 224.761 229.836 227.4 229.836 231.175C229.836 235.441 227.579 238.392 224.645 238.392C223.022 238.392 221.813 237.118 222.196 235.542C222.66 233.665 223.568 231.646 223.568 230.293C223.568 229.079 222.882 228.075 221.481 228.075C219.829 228.075 218.488 229.711 218.488 231.908C218.488 233.304 218.982 234.247 218.982 234.247C218.982 234.247 217.347 240.851 217.043 242.084C216.53 244.172 217.113 247.554 217.164 247.845C217.194 248.006 217.375 248.056 217.476 247.925C217.636 247.714 219.613 244.894 220.167 242.856C220.368 242.114 221.195 239.102 221.195 239.102C221.74 240.085 223.311 240.909 224.985 240.909C229.964 240.909 233.562 236.533 233.562 231.102C233.544 225.895 229.088 222 223.353 222Z" fill="#F38181"/>
<g clip-path="url(#clip1_14_0)">
<path d="M293.019 222.982C292.365 222.327 291.581 222 290.667 222H271.336C270.422 222 269.638 222.327 268.983 222.982C268.328 223.636 268.001 224.421 268.001 225.335V244.665C268.001 245.579 268.328 246.364 268.983 247.018C269.638 247.673 270.422 248 271.336 248H290.666C291.58 248 292.365 247.673 293.019 247.018C293.674 246.364 294.001 245.579 294.001 244.665V225.335C294.001 224.42 293.674 223.637 293.019 222.982ZM277.337 231.369C278.358 230.382 279.585 229.888 281.018 229.888C282.462 229.888 283.695 230.382 284.717 231.369C285.738 232.356 286.248 233.55 286.248 234.949C286.248 236.348 285.738 237.542 284.717 238.529C283.695 239.517 282.463 240.01 281.018 240.01C279.585 240.01 278.358 239.516 277.337 238.529C276.315 237.542 275.805 236.348 275.805 234.949C275.805 233.55 276.315 232.357 277.337 231.369ZM291.056 243.972C291.056 244.265 290.954 244.51 290.751 244.708C290.548 244.905 290.305 245.004 290.023 245.004H271.928C271.635 245.004 271.389 244.905 271.192 244.708C270.994 244.51 270.896 244.265 270.896 243.972V233.002H273.282C273.057 233.713 272.944 234.453 272.944 235.22C272.944 237.387 273.734 239.235 275.314 240.764C276.894 242.293 278.795 243.058 281.018 243.058C282.485 243.058 283.839 242.708 285.081 242.008C286.322 241.308 287.303 240.357 288.026 239.156C288.748 237.954 289.11 236.642 289.11 235.22C289.11 234.453 288.996 233.714 288.771 233.002H291.056V243.972H291.056V243.972ZM291.056 228.855C291.056 229.183 290.943 229.459 290.717 229.685C290.492 229.911 290.215 230.023 289.888 230.023H286.943C286.615 230.023 286.339 229.91 286.113 229.685C285.887 229.459 285.775 229.183 285.775 228.855V226.063C285.775 225.747 285.887 225.473 286.113 225.242C286.339 225.01 286.616 224.894 286.943 224.894H289.888C290.215 224.894 290.492 225.01 290.717 225.242C290.943 225.473 291.056 225.747 291.056 226.063V228.855Z" fill="#F38181"/>
</g>
<defs>
<linearGradient id="paint0_linear_14_0" x1="190" y1="0" x2="190" y2="470" gradientUnits="userSpaceOnUse">
<stop stop-color="#EF8B8A"/>
<stop offset="1" stop-color="#E5CF82"/>
</linearGradient>
<clipPath id="clip0_14_0">
<rect width="26" height="26" fill="white" transform="translate(152 222)"/>
</clipPath>
<clipPath id="clip1_14_0">
<rect width="26" height="26" fill="white" transform="translate(268 222)"/>
</clipPath>
</defs>
</svg>
